<?xml version="1.0" encoding="UTF-8"?>
<svg xmlns="http://www.w3.org/2000/svg" xmlns:xlink="http://www.w3.org/1999/xlink" viewBox="0 0 50 50" width="50px" height="50px">
<g id="surface30568595">
<path style=" stroke:none;fill-rule:nonzero;fill:rgb(86.274511%,0%,18.039216%);fill-opacity:1;" d="M 6 2 L 6 48 L 44 48 L 44 2 Z M 8 4 L 42 4 L 42 46 L 8 46 Z M 13 11 L 13 13 L 37 13 L 37 11 Z M 13 25 L 13 27 L 27 27 L 27 25 Z M 32 25 L 32 27 L 37 27 L 37 25 Z M 13 31 L 13 33 L 27 33 L 27 31 Z M 32 31 L 32 33 L 37 33 L 37 31 Z M 13 37 L 13 39 L 27 39 L 27 37 Z M 32 37 L 32 39 L 37 39 L 37 37 Z M 32 37 "/>
</g>
</svg>
