<?xml version="1.0" encoding="UTF-8"?>
<svg xmlns="http://www.w3.org/2000/svg" xmlns:xlink="http://www.w3.org/1999/xlink" viewBox="0 0 64 64" width="64px" height="64px">
<g id="surface30569288">
<path style=" stroke:none;fill-rule:nonzero;fill:rgb(86.274511%,0%,18.039216%);fill-opacity:1;" d="M 24.5 0.5 C 23.648438 0.5 23 1.148438 23 2 L 23 62 C 23 62.851562 23.648438 63.5 24.5 63.5 C 25.351562 63.5 26 62.851562 26 62 L 26 3.5 L 58 3.5 L 58 62 C 58 62.851562 58.648438 63.5 59.5 63.5 C 60.351562 63.5 61 62.851562 61 62 L 61 2 C 61 1.148438 60.351562 0.5 59.5 0.5 Z M 33.5 9.5 C 32.648438 9.5 32 10.148438 32 11 L 32 13 C 32 13.851562 32.648438 14.5 33.5 14.5 C 34.351562 14.5 35 13.851562 35 13 L 35 11 C 35 10.148438 34.351562 9.5 33.5 9.5 Z M 42 9.5 C 41.148438 9.5 40.5 10.148438 40.5 11 L 40.5 13 C 40.5 13.851562 41.148438 14.5 42 14.5 C 42.851562 14.5 43.5 13.851562 43.5 13 L 43.5 11 C 43.5 10.148438 42.851562 9.5 42 9.5 Z M 50.5 9.5 C 49.648438 9.5 49 10.148438 49 11 L 49 13 C 49 13.851562 49.648438 14.5 50.5 14.5 C 51.351562 14.5 52 13.851562 52 13 L 52 11 C 52 10.148438 51.351562 9.5 50.5 9.5 Z M 18.050781 16.5 C 17.851562 16.492188 17.648438 16.523438 17.449219 16.597656 L 4.449219 21.597656 C 3.898438 21.800781 3.5 22.398438 3.5 23 L 3.5 62 C 3.5 62.851562 4.148438 63.5 5 63.5 C 5.851562 63.5 6.5 62.851562 6.5 62 L 6.5 24.050781 L 18.550781 19.402344 C 19.300781 19.101562 19.699219 18.25 19.402344 17.449219 C 19.175781 16.886719 18.640625 16.523438 18.050781 16.5 Z M 33.5 19.5 C 32.648438 19.5 32 20.148438 32 21 L 32 23 C 32 23.851562 32.648438 24.5 33.5 24.5 C 34.351562 24.5 35 23.851562 35 23 L 35 21 C 35 20.148438 34.351562 19.5 33.5 19.5 Z M 42 19.5 C 41.148438 19.5 40.5 20.148438 40.5 21 L 40.5 23 C 40.5 23.851562 41.148438 24.5 42 24.5 C 42.851562 24.5 43.5 23.851562 43.5 23 L 43.5 21 C 43.5 20.148438 42.851562 19.5 42 19.5 Z M 50.5 19.5 C 49.648438 19.5 49 20.148438 49 21 L 49 23 C 49 23.851562 49.648438 24.5 50.5 24.5 C 51.351562 24.5 52 23.851562 52 23 L 52 21 C 52 20.148438 51.351562 19.5 50.5 19.5 Z M 15 29.5 C 14.148438 29.5 13.5 30.148438 13.5 31 L 13.5 33 C 13.5 33.851562 14.148438 34.5 15 34.5 C 15.851562 34.5 16.5 33.851562 16.5 33 L 16.5 31 C 16.5 30.148438 15.851562 29.5 15 29.5 Z M 33.5 29.5 C 32.648438 29.5 32 30.148438 32 31 L 32 33 C 32 33.851562 32.648438 34.5 33.5 34.5 C 34.351562 34.5 35 33.851562 35 33 L 35 31 C 35 30.148438 34.351562 29.5 33.5 29.5 Z M 42 29.5 C 41.148438 29.5 40.5 30.148438 40.5 31 L 40.5 33 C 40.5 33.851562 41.148438 34.5 42 34.5 C 42.851562 34.5 43.5 33.851562 43.5 33 L 43.5 31 C 43.5 30.148438 42.851562 29.5 42 29.5 Z M 50.5 29.5 C 49.648438 29.5 49 30.148438 49 31 L 49 33 C 49 33.851562 49.648438 34.5 50.5 34.5 C 51.351562 34.5 52 33.851562 52 33 L 52 31 C 52 30.148438 51.351562 29.5 50.5 29.5 Z M 15 39.5 C 14.148438 39.5 13.5 40.148438 13.5 41 L 13.5 43 C 13.5 43.851562 14.148438 44.5 15 44.5 C 15.851562 44.5 16.5 43.851562 16.5 43 L 16.5 41 C 16.5 40.148438 15.851562 39.5 15 39.5 Z M 33.5 39.5 C 32.648438 39.5 32 40.148438 32 41 L 32 43 C 32 43.851562 32.648438 44.5 33.5 44.5 C 34.351562 44.5 35 43.851562 35 43 L 35 41 C 35 40.148438 34.351562 39.5 33.5 39.5 Z M 42 39.5 C 41.148438 39.5 40.5 40.148438 40.5 41 L 40.5 43 C 40.5 43.851562 41.148438 44.5 42 44.5 C 42.851562 44.5 43.5 43.851562 43.5 43 L 43.5 41 C 43.5 40.148438 42.851562 39.5 42 39.5 Z M 50.5 39.5 C 49.648438 39.5 49 40.148438 49 41 L 49 43 C 49 43.851562 49.648438 44.5 50.5 44.5 C 51.351562 44.5 52 43.851562 52 43 L 52 41 C 52 40.148438 51.351562 39.5 50.5 39.5 Z M 13.5 51.5 C 12.648438 51.5 12 52.148438 12 53 L 12 62 C 12 62.851562 12.648438 63.5 13.5 63.5 L 16.5 63.5 C 17.351562 63.5 18 62.851562 18 62 L 18 53 C 18 52.148438 17.351562 51.5 16.5 51.5 Z M 40.5 51.5 C 39.648438 51.5 39 52.148438 39 53 L 39 62 C 39 62.851562 39.648438 63.5 40.5 63.5 L 43.5 63.5 C 44.351562 63.5 45 62.851562 45 62 L 45 53 C 45 52.148438 44.351562 51.5 43.5 51.5 Z M 40.5 51.5 "/>
</g>
</svg>
